<svg xmlns="http://www.w3.org/2000/svg" width="800" height="420" viewBox="0 0 800 420">
<rect width="100%" height="100%" fill="white" />
<text x="400" y="24" text-anchor="middle" font-size="20" font-family="Arial">Random Circuits vs Depth</text>
<line x1="70" y1="360" x2="770" y2="360" stroke="black" />
<line x1="70" y1="45" x2="70" y2="360" stroke="black" />
<text x="400" y="404" text-anchor="middle" font-size="14" font-family="Arial">Depth</text>
<text x="18" y="210" text-anchor="middle" font-size="14" font-family="Arial" transform="rotate(-90 18 210)">Metric Value</text>
<line x1="70.00" y1="360" x2="70.00" y2="366" stroke="black" />
<text x="70.00" y="384" text-anchor="middle" font-size="12" font-family="Arial">1</text>
<line x1="64" y1="360.00" x2="70" y2="360.00" stroke="black" />
<text x="60" y="364.00" text-anchor="end" font-size="12" font-family="Arial">0.0141</text>
<line x1="245.00" y1="360" x2="245.00" y2="366" stroke="black" />
<text x="245.00" y="384" text-anchor="middle" font-size="12" font-family="Arial">4.5</text>
<line x1="64" y1="281.25" x2="70" y2="281.25" stroke="black" />
<text x="60" y="285.25" text-anchor="end" font-size="12" font-family="Arial">0.255</text>
<line x1="420.00" y1="360" x2="420.00" y2="366" stroke="black" />
<text x="420.00" y="384" text-anchor="middle" font-size="12" font-family="Arial">8</text>
<line x1="64" y1="202.50" x2="70" y2="202.50" stroke="black" />
<text x="60" y="206.50" text-anchor="end" font-size="12" font-family="Arial">0.497</text>
<line x1="595.00" y1="360" x2="595.00" y2="366" stroke="black" />
<text x="595.00" y="384" text-anchor="middle" font-size="12" font-family="Arial">11.5</text>
<line x1="64" y1="123.75" x2="70" y2="123.75" stroke="black" />
<text x="60" y="127.75" text-anchor="end" font-size="12" font-family="Arial">0.738</text>
<line x1="770.00" y1="360" x2="770.00" y2="366" stroke="black" />
<text x="770.00" y="384" text-anchor="middle" font-size="12" font-family="Arial">15</text>
<line x1="64" y1="45.00" x2="70" y2="45.00" stroke="black" />
<text x="60" y="49.00" text-anchor="end" font-size="12" font-family="Arial">0.979</text>
<path d="M 70.00 45.00 L 120.00 53.61 L 170.00 59.26 L 270.00 72.08 L 520.00 108.36 L 770.00 135.47" fill="none" stroke="#1f77b4" stroke-width="2.5" />
<circle cx="70.00" cy="45.00" r="3.5" fill="#1f77b4" />
<circle cx="120.00" cy="53.61" r="3.5" fill="#1f77b4" />
<circle cx="170.00" cy="59.26" r="3.5" fill="#1f77b4" />
<circle cx="270.00" cy="72.08" r="3.5" fill="#1f77b4" />
<circle cx="520.00" cy="108.36" r="3.5" fill="#1f77b4" />
<circle cx="770.00" cy="135.47" r="3.5" fill="#1f77b4" />
<line x1="70" y1="55" x2="94" y2="55" stroke="#1f77b4" stroke-width="2.5" />
<text x="100" y="59" font-size="12" font-family="Arial">Fidelity</text>
<path d="M 70.00 360.00 L 120.00 353.33 L 170.00 354.52 L 270.00 338.29 L 520.00 321.95 L 770.00 309.78" fill="none" stroke="#d62728" stroke-width="2.5" />
<circle cx="70.00" cy="360.00" r="3.5" fill="#d62728" />
<circle cx="120.00" cy="353.33" r="3.5" fill="#d62728" />
<circle cx="170.00" cy="354.52" r="3.5" fill="#d62728" />
<circle cx="270.00" cy="338.29" r="3.5" fill="#d62728" />
<circle cx="520.00" cy="321.95" r="3.5" fill="#d62728" />
<circle cx="770.00" cy="309.78" r="3.5" fill="#d62728" />
<line x1="220" y1="55" x2="244" y2="55" stroke="#d62728" stroke-width="2.5" />
<text x="250" y="59" font-size="12" font-family="Arial">TVD</text>
</svg>